<svg xmlns="http://www.w3.org/2000/svg" viewBox="0 0 362 362"><defs><style>.a{fill:#459aff;}</style></defs><title>gear1</title><path class="a" d="M381,221V179l-45.27-5a137,137,0,0,0-5-19.39l36.56-26.89-21-36.37L305,109.41a138.84,138.84,0,0,0-14.32-14.46l18-41.19-36.37-21-26.52,36a137,137,0,0,0-19.86-5.35L221,19H179l-4.94,44.44a137,137,0,0,0-19.86,5.35l-26.52-36-36.37,21,18,41.19A138.84,138.84,0,0,0,95,109.41L53.75,91.31l-21,36.37,36.56,26.89a137,137,0,0,0-5,19.39L19,179v42l45.66,5.07A137,137,0,0,0,69.87,245L32.75,272.31l21,36.37L96.3,290A138.85,138.85,0,0,0,110,303.61L91.31,346.25l36.37,21,27.68-37.63a137,137,0,0,0,18.46,4.89L179,381h42l5.17-46.49a137,137,0,0,0,18.46-4.89l27.68,37.63,36.37-21L290,303.61A138.85,138.85,0,0,0,303.7,290l42.55,18.64,21-36.37L330.13,245a137,137,0,0,0,5.2-18.93ZM200.5,275c-42.8,0-77.5-34-77.5-76s34.7-76,77.5-76S278,157,278,199,243.3,275,200.5,275Z" transform="translate(-19 -19)"/><circle class="a" cx="181" cy="181" r="50"/></svg>