<svg xmlns="http://www.w3.org/2000/svg" viewBox="0 0 352 352"><defs><style>.a{fill:#459aff;}</style></defs><title>gear2</title><path class="a" d="M376,222V180l-52.52-13.23a126.7,126.7,0,0,0-11.67-28.48L340,91.11l-29.7-29.7-47,28.1a126.72,126.72,0,0,0-27.71-11.62L222,24H180L166.5,77.59a126.68,126.68,0,0,0-27.35,11.12L91.11,60l-29.7,29.7L89.8,137.2a126.76,126.76,0,0,0-11.59,27.15L24,178v42l53.3,13.42a126.68,126.68,0,0,0,11.12,27.9L60,308.89l29.7,29.7,46.66-27.89a126.76,126.76,0,0,0,28.26,12.17L178,376h42l13.15-52.23a126.68,126.68,0,0,0,29-11.67L308.89,340l29.7-29.7L311,264.14a126.75,126.75,0,0,0,12.19-28.84ZM189,165.72a36,36,0,0,0-14.68,9.06L129.4,148.85A86.41,86.41,0,0,1,189,113.66Zm-69.38.57,45.2,26.1a36,36,0,0,0,.5,17.25l-44.53,25.71a86.55,86.55,0,0,1-1.17-69.05Zm11.52,86.17,44.68-25.8a35.92,35.92,0,0,0,15.19,8.2v50.71A86.36,86.36,0,0,1,131.13,252.46ZM211,234.28a36,36,0,0,0,14.68-9.06l43.7,25.23A86.42,86.42,0,0,1,211,285.22Zm68.25-1.23-44.06-25.44a36,36,0,0,0-.5-17.25l44.1-25.46a86.64,86.64,0,0,1,.46,68.15Zm-10.53-85.43-44.53,25.71a35.92,35.92,0,0,0-15.19-8.2v-51.6A86.41,86.41,0,0,1,268.72,147.62Z" transform="translate(-24 -24)"/></svg>